<svg width="40" height="40" viewBox="0 0 40 40" fill="none" xmlns="http://www.w3.org/2000/svg">
<path d="M9.9133 23.3333C10.3515 23.3333 10.7717 23.5089 11.0816 23.8215C11.3914 24.134 11.5655 24.558 11.5655 25C11.5655 25.442 11.3914 25.8659 11.0816 26.1785C10.7717 26.4911 10.3515 26.6667 9.9133 26.6667C8.82844 26.6667 7.7542 26.4511 6.75192 26.0323C5.74964 25.6135 4.83895 24.9997 4.07184 24.2259C2.52258 22.6631 1.65222 20.5435 1.65222 18.3333C1.65222 16.1232 2.52258 14.0036 4.07184 12.4408C5.62109 10.878 7.72233 10 9.9133 10C11.5655 6.08333 15.3656 3.33333 19.8266 3.33333C25.4937 3.33333 30.1364 7.76666 30.566 13.3833L31.3921 13.3333C33.1449 13.3333 34.8259 14.0357 36.0653 15.286C37.3047 16.5362 38.001 18.2319 38.001 20C38.001 21.7681 37.3047 23.4638 36.0653 24.714C34.8259 25.9643 33.1449 26.6667 31.3921 26.6667H29.7399C29.3017 26.6667 28.8814 26.4911 28.5716 26.1785C28.2617 25.8659 28.0877 25.442 28.0877 25C28.0877 24.558 28.2617 24.134 28.5716 23.8215C28.8814 23.5089 29.3017 23.3333 29.7399 23.3333H31.3921C32.2685 23.3333 33.109 22.9821 33.7287 22.357C34.3484 21.7319 34.6965 20.8841 34.6965 20C34.6965 19.1159 34.3484 18.2681 33.7287 17.643C33.109 17.0179 32.2685 16.6667 31.3921 16.6667H28.0877V15C28.0877 12.7899 27.2173 10.6702 25.6681 9.10744C24.1188 7.54464 22.0176 6.66666 19.8266 6.66666C15.6961 6.66666 12.309 9.7 11.6646 13.65C11.1194 13.45 10.5246 13.3333 9.9133 13.3333C8.59872 13.3333 7.33797 13.8601 6.40842 14.7978C5.47887 15.7355 4.95665 17.0072 4.95665 18.3333C4.95665 19.6594 5.47887 20.9312 6.40842 21.8689C7.33797 22.8065 8.59872 23.3333 9.9133 23.3333ZM16.5222 30C17.3986 30 18.239 30.3512 18.8587 30.9763C19.4784 31.6014 19.8266 32.4493 19.8266 33.3333C19.8266 34.2174 19.4784 35.0652 18.8587 35.6904C18.239 36.3155 17.3986 36.6667 16.5222 36.6667C15.6458 36.6667 14.8053 36.3155 14.1856 35.6904C13.5659 35.0652 13.2177 34.2174 13.2177 33.3333C13.2177 32.4493 13.5659 31.6014 14.1856 30.9763C14.8053 30.3512 15.6458 30 16.5222 30ZM23.9571 26.6667C24.6144 26.6667 25.2448 26.9301 25.7096 27.3989C26.1743 27.8677 26.4355 28.5036 26.4355 29.1667C26.4355 29.8297 26.1743 30.4656 25.7096 30.9344C25.2448 31.4033 24.6144 31.6667 23.9571 31.6667C23.2998 31.6667 22.6695 31.4033 22.2047 30.9344C21.7399 30.4656 21.4788 29.8297 21.4788 29.1667C21.4788 28.5036 21.7399 27.8677 22.2047 27.3989C22.6695 26.9301 23.2998 26.6667 23.9571 26.6667ZM17.3483 20C18.0056 20 18.6359 20.2634 19.1007 20.7322C19.5655 21.2011 19.8266 21.837 19.8266 22.5C19.8266 23.163 19.5655 23.7989 19.1007 24.2678C18.6359 24.7366 18.0056 25 17.3483 25C16.691 25 16.0606 24.7366 15.5958 24.2678C15.1311 23.7989 14.8699 23.163 14.8699 22.5C14.8699 21.837 15.1311 21.2011 15.5958 20.7322C16.0606 20.2634 16.691 20 17.3483 20Z" fill="url(#paint0_linear_2_314)"/>
<defs>
<linearGradient id="paint0_linear_2_314" x1="19.8266" y1="3.33333" x2="19.8266" y2="36.6667" gradientUnits="userSpaceOnUse">
<stop stop-color="#3C6FD1"/>
<stop offset="0.0001" stop-color="#3C6FD1"/>
<stop offset="1" stop-color="#7CA9FF"/>
</linearGradient>
</defs>
</svg>
