<svg width="40" height="40" viewBox="0 0 40 40" fill="none" xmlns="http://www.w3.org/2000/svg">
<path d="M21.4788 25.4667V14.1667C21.4788 13.7246 21.3048 13.3007 20.9949 12.9882C20.6851 12.6756 20.2648 12.5 19.8266 12.5C19.3884 12.5 18.9682 12.6756 18.6583 12.9882C18.3485 13.3007 18.1744 13.7246 18.1744 14.1667V25.4667C17.675 25.7575 17.2597 26.1752 16.9698 26.6781C16.68 27.181 16.5257 27.7516 16.5222 28.3333C16.5222 29.2174 16.8703 30.0652 17.49 30.6904C18.1097 31.3155 18.9502 31.6667 19.8266 31.6667C20.703 31.6667 21.5435 31.3155 22.1632 30.6904C22.7829 30.0652 23.131 29.2174 23.131 28.3333C23.1276 27.7516 22.9732 27.181 22.6834 26.6781C22.3935 26.1752 21.9783 25.7575 21.4788 25.4667ZM27.2616 21.6667V9.16667C27.2616 7.17755 26.4783 5.26989 25.0839 3.86337C23.6896 2.45685 21.7985 1.66667 19.8266 1.66667C17.8547 1.66667 15.9636 2.45685 14.5693 3.86337C13.175 5.26989 12.3916 7.17755 12.3916 9.16667V21.6667C11.2497 22.972 10.4654 24.5555 10.1162 26.2604C9.76709 27.9653 9.86524 29.7327 10.401 31.3876C10.9367 33.0425 11.8915 34.5277 13.1708 35.6962C14.4501 36.8647 16.0097 37.6761 17.6953 38.05C18.3954 38.211 19.109 38.3059 19.8266 38.3333C21.7442 38.3423 23.6232 37.7901 25.236 36.7436C26.8487 35.697 28.126 34.2011 28.9129 32.4371C29.6998 30.6731 29.9627 28.7167 29.6696 26.805C29.3765 24.8934 28.54 23.1085 27.2616 21.6667ZM23.9571 33.45C22.6426 34.6258 20.9188 35.2267 19.165 35.1204C17.4113 35.0141 15.7712 34.2094 14.6056 32.8833C13.44 31.5573 12.8444 29.8184 12.9497 28.0493C13.0551 26.2802 13.8528 24.6258 15.1674 23.45C15.3235 23.2956 15.4477 23.1116 15.5328 22.9085C15.6178 22.7053 15.6621 22.4872 15.663 22.2667V9.16667C15.663 8.0616 16.0982 7.0018 16.8728 6.22039C17.6475 5.43899 18.6981 5.00001 19.7936 5.00001C20.8891 5.00001 21.9397 5.43899 22.7143 6.22039C23.4889 7.0018 23.9241 8.0616 23.9241 9.16667V22.4C23.925 22.6205 23.9693 22.8387 24.0544 23.0418C24.1395 23.2449 24.2637 23.429 24.4198 23.5833C25.0951 24.2415 25.6237 25.0372 25.9702 25.9176C26.3168 26.7979 26.4734 27.7427 26.4297 28.6888C26.3859 29.635 26.1427 30.561 25.7164 31.4049C25.2901 32.2489 24.6903 32.9915 23.9571 33.5833V33.45Z" fill="url(#paint0_linear_2_290)"/>
<defs>
<linearGradient id="paint0_linear_2_290" x1="19.8486" y1="1.66667" x2="19.8486" y2="38.3335" gradientUnits="userSpaceOnUse">
<stop stop-color="#3C6FD1"/>
<stop offset="0.0001" stop-color="#3C6FD1"/>
<stop offset="1" stop-color="#7CA9FF"/>
</linearGradient>
</defs>
</svg>
