<svg width="40" height="40" viewBox="0 0 40 40" fill="none" xmlns="http://www.w3.org/2000/svg">
<path d="M21.4788 6.66667L19.8266 11.5567L18.1744 6.66667C18.0853 6.40183 18.0601 6.11938 18.1008 5.84273C18.1415 5.56609 18.247 5.30321 18.4085 5.07589C18.57 4.84857 18.7829 4.66334 19.0295 4.53557C19.2761 4.40779 19.5494 4.34114 19.8266 4.34114C20.1039 4.34114 20.3771 4.40779 20.6238 4.53557C20.8704 4.66334 21.0833 4.84857 21.2448 5.07589C21.4063 5.30321 21.5117 5.56609 21.5525 5.84273C21.5932 6.11938 21.5679 6.40183 21.4788 6.66667ZM6.60889 18.3333L11.4565 20L6.60889 21.6667C6.34635 21.7565 6.06635 21.782 5.7921 21.7409C5.51786 21.6999 5.25726 21.5935 5.03191 21.4305C4.80656 21.2676 4.62294 21.0529 4.49627 20.8041C4.3696 20.5553 4.30353 20.2797 4.30353 20C4.30353 19.7203 4.3696 19.4447 4.49627 19.1959C4.62294 18.9471 4.80656 18.7324 5.03191 18.5695C5.25726 18.4065 5.51786 18.3001 5.7921 18.2591C6.06635 18.218 6.34635 18.2435 6.60889 18.3333ZM18.1744 33.3333L19.8266 28.4433L21.4788 33.3333C21.5679 33.5982 21.5932 33.8806 21.5525 34.1573C21.5117 34.4339 21.4063 34.6968 21.2448 34.9241C21.0833 35.1514 20.8704 35.3367 20.6238 35.4644C20.3771 35.5922 20.1039 35.6589 19.8266 35.6589C19.5494 35.6589 19.2761 35.5922 19.0295 35.4644C18.7829 35.3367 18.57 35.1514 18.4085 34.9241C18.247 34.6968 18.1415 34.4339 18.1008 34.1573C18.0601 33.8806 18.0853 33.5982 18.1744 33.3333ZM33.0443 21.6633L28.1967 19.9967L33.0443 18.33C33.3069 18.2401 33.5869 18.2147 33.8611 18.2557C34.1354 18.2968 34.396 18.4032 34.6213 18.5661C34.8467 18.729 35.0303 18.9438 35.157 19.1926C35.2836 19.4413 35.3497 19.717 35.3497 19.9967C35.3497 20.2763 35.2836 20.552 35.157 20.8008C35.0303 21.0496 34.8467 21.2643 34.6213 21.4272C34.396 21.5901 34.1354 21.6965 33.8611 21.7376C33.5869 21.7787 33.3069 21.7532 33.0443 21.6633ZM11.6482 9.39334L13.9067 14.0283L9.31192 11.75C9.06222 11.6268 8.84529 11.4452 8.67918 11.2203C8.51307 10.9955 8.40256 10.7339 8.35685 10.4573C8.31115 10.1807 8.33156 9.89705 8.41639 9.63001C8.50122 9.36296 8.64802 9.12021 8.84459 8.92192C9.04116 8.72364 9.28181 8.57555 9.54654 8.48997C9.81126 8.4044 10.0924 8.38381 10.3666 8.42992C10.6408 8.47602 10.9002 8.5875 11.1231 8.75506C11.346 8.92263 11.526 9.14145 11.6482 9.39334ZM9.31192 28.2483L13.9067 25.97L11.6482 30.605C11.526 30.8569 11.346 31.0757 11.1231 31.2433C10.9002 31.4108 10.6408 31.5223 10.3666 31.5684C10.0924 31.6145 9.81126 31.5939 9.54654 31.5084C9.28181 31.4228 9.04116 31.2747 8.84459 31.0764C8.64802 30.8781 8.50122 30.6354 8.41639 30.3683C8.33156 30.1013 8.31115 29.8177 8.35685 29.5411C8.40256 29.2645 8.51307 29.0029 8.67918 28.778C8.84529 28.5532 9.06222 28.3716 9.31192 28.2483ZM28.0034 30.605L25.7449 25.97L30.3397 28.2483C30.5894 28.3716 30.8063 28.5532 30.9724 28.778C31.1385 29.0029 31.249 29.2645 31.2947 29.5411C31.3404 29.8177 31.32 30.1013 31.2352 30.3683C31.1504 30.6354 31.0036 30.8781 30.807 31.0764C30.6104 31.2747 30.3698 31.4228 30.1051 31.5084C29.8403 31.5939 29.5592 31.6145 29.285 31.5684C29.0108 31.5223 28.7514 31.4108 28.5285 31.2433C28.3056 31.0757 28.1256 30.8569 28.0034 30.605ZM30.338 11.7467L25.7416 14.0267L28.0018 9.39C28.124 9.13812 28.304 8.9193 28.5269 8.75173C28.7498 8.58416 29.0091 8.47269 29.2833 8.42658C29.5575 8.38048 29.8387 8.40107 30.1034 8.48664C30.3681 8.57222 30.6088 8.7203 30.8053 8.91859C31.0019 9.11687 31.1487 9.35963 31.2335 9.62667C31.3184 9.89372 31.3388 10.1773 31.2931 10.4539C31.2474 10.7305 31.1369 10.9921 30.9708 11.217C30.8046 11.4418 30.5877 11.6234 30.338 11.7467ZM19.8266 27.5C15.7275 27.5 12.3916 24.135 12.3916 20C12.3916 15.865 15.7275 12.5 19.8266 12.5C23.9258 12.5 27.2616 15.865 27.2616 20C27.2616 24.135 23.9258 27.5 19.8266 27.5ZM19.8266 15.8333C17.5482 15.8333 15.6961 17.7017 15.6961 20C15.6961 22.2983 17.5482 24.1667 19.8266 24.1667C22.105 24.1667 23.9572 22.2983 23.9572 20C23.9572 17.7017 22.105 15.8333 19.8266 15.8333Z" fill="url(#paint0_linear_2_309)"/>
<defs>
<linearGradient id="paint0_linear_2_309" x1="19.8266" y1="4.34114" x2="19.8266" y2="35.6589" gradientUnits="userSpaceOnUse">
<stop stop-color="#3C6FD1"/>
<stop offset="0.0001" stop-color="#3C6FD1"/>
<stop offset="1" stop-color="#7CA9FF"/>
</linearGradient>
</defs>
</svg>
