<svg width="40" height="40" viewBox="0 0 40 40" fill="none" xmlns="http://www.w3.org/2000/svg">
<path d="M6.60888 16.6667C6.17069 16.6667 5.75044 16.4911 5.44059 16.1785C5.13074 15.8659 4.95667 15.442 4.95667 15C4.95667 14.558 5.13074 14.134 5.44059 13.8215C5.75044 13.5089 6.17069 13.3333 6.60888 13.3333H19.8266C20.703 13.3333 21.5435 12.9821 22.1632 12.357C22.7829 11.7319 23.131 10.884 23.131 9.99999C23.131 9.11594 22.7829 8.26809 22.1632 7.64297C21.5435 7.01785 20.703 6.66666 19.8266 6.66666C18.9179 6.66666 18.0918 7.03333 17.497 7.64999C17.3466 7.81186 17.1649 7.94089 16.9632 8.0291C16.7614 8.11731 16.5438 8.16282 16.3239 8.16282C16.104 8.16282 15.8864 8.11731 15.6847 8.0291C15.4829 7.94089 15.3012 7.81186 15.1508 7.64999C14.5065 6.99999 14.5065 5.93333 15.1508 5.28333C16.357 4.08333 18.0092 3.33333 19.8266 3.33333C21.5794 3.33333 23.2604 4.03571 24.4998 5.28595C25.7392 6.53619 26.4355 8.23188 26.4355 9.99999C26.4355 11.7681 25.7392 13.4638 24.4998 14.714C23.2604 15.9643 21.5794 16.6667 19.8266 16.6667H6.60888ZM31.3921 20C31.8303 20 32.2506 19.8244 32.5604 19.5118C32.8703 19.1993 33.0443 18.7754 33.0443 18.3333C33.0443 17.8913 32.8703 17.4674 32.5604 17.1548C32.2506 16.8423 31.8303 16.6667 31.3921 16.6667C30.9295 16.6667 30.5164 16.85 30.219 17.15C30.0662 17.3045 29.8846 17.4271 29.6848 17.5107C29.4849 17.5944 29.2706 17.6374 29.0542 17.6374C28.8378 17.6374 28.6236 17.5944 28.4237 17.5107C28.2238 17.4271 28.0423 17.3045 27.8894 17.15C27.2616 16.5 27.2616 15.45 27.8894 14.8C28.7816 13.9 30.0208 13.3333 31.3921 13.3333C32.7067 13.3333 33.9674 13.8601 34.897 14.7978C35.8265 15.7355 36.3488 17.0072 36.3488 18.3333C36.3488 19.6594 35.8265 20.9312 34.897 21.8689C33.9674 22.8065 32.7067 23.3333 31.3921 23.3333H8.2611C7.8229 23.3333 7.40265 23.1577 7.0928 22.8452C6.78295 22.5326 6.60888 22.1087 6.60888 21.6667C6.60888 21.2246 6.78295 20.8007 7.0928 20.4881C7.40265 20.1756 7.8229 20 8.2611 20H31.3921ZM29.7399 30H6.60888C6.17069 30 5.75044 29.8244 5.44059 29.5118C5.13074 29.1993 4.95667 28.7754 4.95667 28.3333C4.95667 27.8913 5.13074 27.4674 5.44059 27.1548C5.75044 26.8423 6.17069 26.6667 6.60888 26.6667H29.7399C31.0545 26.6667 32.3152 27.1934 33.2448 28.1311C34.1743 29.0688 34.6965 30.3406 34.6965 31.6667C34.6965 32.9927 34.1743 34.2645 33.2448 35.2022C32.3152 36.1399 31.0545 36.6667 29.7399 36.6667C28.3686 36.6667 27.1294 36.1 26.2372 35.2C25.6094 34.55 25.6094 33.5 26.2372 32.85C26.3901 32.6955 26.5716 32.5729 26.7715 32.4893C26.9714 32.4056 27.1856 32.3626 27.402 32.3626C27.6184 32.3626 27.8327 32.4056 28.0325 32.4893C28.2324 32.5729 28.414 32.6955 28.5668 32.85C28.8642 33.15 29.2773 33.3333 29.7399 33.3333C30.1781 33.3333 30.5983 33.1577 30.9082 32.8452C31.218 32.5326 31.3921 32.1087 31.3921 31.6667C31.3921 31.2246 31.218 30.8007 30.9082 30.4881C30.5983 30.1756 30.1781 30 29.7399 30Z" fill="url(#paint0_linear_2_282)"/>
<defs>
<linearGradient id="paint0_linear_2_282" x1="20.6527" y1="3.33333" x2="20.6527" y2="36.6667" gradientUnits="userSpaceOnUse">
<stop stop-color="#3C6FD1"/>
<stop offset="0.0001" stop-color="#3C6FD1"/>
<stop offset="1" stop-color="#7CA9FF"/>
</linearGradient>
</defs>
</svg>
